<svg 
    width="206.37mm" 
    height="296.16mm" 
    version="1.1" 
    viewBox="0 0 206.37 296.16" 
    xml:space="preserve" 
    xmlns="http://www.w3.org/2000/svg">
        <defs>
            <clipPath id="svgLayerPath">
                <path 
                    d="m50.142 0.59755-8.9191 14.312h-40.862l0.10369 281.85h156.59l8.4007-14.001h41.173l0.10364-268.58-40.239 0.31107-8.7117-13.69zm63.768 27.231c44.51-0.0016 87.58 0.02416 87.58 0.02416l0.0736 125.8s-1.3202 11.88-12.32 11.88c-11 0-183.89-0.16202-183.89-0.16202l0.09019-126.77s0.73381-10.414 12.247-10.634c5.7567-0.11 51.705-0.13922 96.215-0.14081z" 
                    stroke-width=".30164"
                />
            </clipPath>
        </defs>
    <g 
        transform="translate(-.36172 -.59755)" 
        fill="none">
        <path 
            d="m50.142 0.59755-8.9191 14.312h-40.862l0.10369 281.85h156.59l8.4007-14.001h41.173l0.10364-268.58-40.239 0.31107-8.7117-13.69zm63.768 27.231c44.51-0.0016 87.58 0.02416 87.58 0.02416l0.0736 125.8s-1.3202 11.88-12.32 11.88c-11 0-183.89-0.16202-183.89-0.16202l0.09019-126.77s0.73381-10.414 12.247-10.634c5.7567-0.11 51.705-0.13922 96.215-0.14081z" 
            fill="#aa000088" 
            stroke-width=".30164"
        />
    </g>
</svg>
